<?xml version="1.0" standalone="no"?>
<!DOCTYPE svg PUBLIC "-//W3C//DTD SVG 20010904//EN"
 "http://www.w3.org/TR/2001/REC-SVG-20010904/DTD/svg10.dtd">
<svg version="1.0" xmlns="http://www.w3.org/2000/svg"
 width="1254.000000pt" height="1254.000000pt" viewBox="0 0 1254.000000 1254.000000"
 preserveAspectRatio="xMidYMid meet">
<metadata>
Created by potrace 1.16, written by Peter Selinger 2001-2019
</metadata>
<g transform="translate(0.000000,1254.000000) scale(0.100000,-0.100000)"
fill="#5da88e" stroke="none">
<path d="M2113 10223 c-10 -4 -13 -805 -13 -3959 l0 -3954 855 0 855 0 1 1033
c1 567 5 1706 8 2530 l6 1498 215 -368 c118 -203 251 -431 296 -508 44 -77
222 -381 393 -675 172 -294 361 -618 421 -720 297 -510 387 -665 450 -770 37
-63 165 -284 285 -490 120 -206 249 -428 287 -492 49 -84 74 -118 87 -118 14
0 59 69 176 272 87 150 188 325 225 388 37 63 153 261 258 440 104 179 285
487 402 685 117 198 272 461 345 585 886 1507 1018 1730 1027 1730 4 0 5
-1032 3 -2292 -3 -1261 -2 -2391 1 -2511 l7 -217 878 0 879 0 -2 3958 -3 3957
-910 3 c-500 2 -942 0 -981 -3 l-70 -6 -41 -62 c-22 -34 -179 -300 -349 -592
-325 -561 -804 -1383 -1033 -1775 -225 -385 -348 -598 -536 -925 -98 -170
-195 -341 -217 -378 l-40 -69 -42 74 c-24 40 -154 271 -290 513 -137 242 -274
485 -306 540 -32 55 -252 447 -490 870 -418 744 -514 916 -605 1075 -24 41
-74 131 -112 200 -38 69 -121 216 -183 326 l-113 202 -146 6 c-168 6 -1860 6
-1878 -1z"/>
</g>
</svg>
